<?xml version="1.0" encoding="utf-8"?>
<!-- Generator: Adobe Illustrator 17.1.0, SVG Export Plug-In . SVG Version: 6.00 Build 0)  -->
<!DOCTYPE svg PUBLIC "-//W3C//DTD SVG 1.1//EN" "http://www.w3.org/Graphics/SVG/1.1/DTD/svg11.dtd">
<svg version="1.1" id="Layer_1" xmlns="http://www.w3.org/2000/svg" xmlns:xlink="http://www.w3.org/1999/xlink" x="0px" y="0px"
	 viewBox="0 0 718.7 118.3" enable-background="new 0 0 718.7 118.3" xml:space="preserve">
<g>
	<g>
		<path fill="#FFFFFF" d="M161.7,63.4l0.1,9.6c0,4.9-0.2,8.6-0.7,11c-0.5,2.4-1.2,4.4-2.1,6c-1,1.6-2.1,3.1-3.3,4.4
			c-1.3,1.3-2.7,2.4-4.2,3.4c-4.3,2.7-8.4,4.1-12.5,4.1c-0.2,0-0.4,0-0.6,0l-3.4-7.8c2.4-1,4.2-2,5.4-3.1c2.8-2.6,4.5-6.2,5.2-10.7
			c0.4-2.6,0.5-8.2,0.5-16.8V26.4h15.6V63.4z"/>
		<path fill="#FFFFFF" d="M221.4,62.6c0,17.6-8.5,26.4-25.6,26.4c-13.6,0-21.8-5.2-24.8-15.7c-0.9-3.3-1.4-6.9-1.4-10.9l0.2-36h15.4
			l-0.1,34.1c0,0.2,0,1.1,0,2.7c0,1.6,0.2,3.4,0.7,5.5c0.4,2.1,1.1,3.7,2,5c1.5,2.2,4.2,3.3,7.9,3.3c3.6,0,6.2-1.1,7.9-3.4
			c1.7-2.4,2.6-6.8,2.6-12.9V26.4h15.3V62.6z"/>
		<path fill="#FFFFFF" d="M233.2,26.4h20.9l7.5,32.3l2.8,14.7l2.2-14.7l6.7-32.3h20.3l7.9,62.6h-14.9l-2.9-33l-0.9-17.8L279,56.4
			L270.7,89H257l-9-32.6l-4.1-18.2l-1.1,17.8l-2.4,33H226L233.2,26.4z"/>
		<path fill="#FFFFFF" d="M361.1,73.5c2.9,1.7,6.8,2.8,11.5,3.5c1.6,0.2,3.6,0.4,5.9,0.4c4.9,0,7.4-1.7,7.4-5.2
			c0-1.8-0.9-3.4-2.8-4.7c-1.1-0.8-3.5-2-7.2-3.8c-3.7-1.7-6.4-3.2-8.2-4.4c-1.8-1.2-3.3-2.5-4.6-4.1c-2.9-3.3-4.3-7.3-4.3-11.8
			c0-5.4,2-9.6,6.2-12.6c3.9-2.8,9.2-4.2,16-4.2c7.5,0,13.3,1.2,17.5,3.5L396,41.8c-2.1-1.7-5.4-2.9-9.7-3.6
			c-1.4-0.2-3.1-0.3-5.3-0.3c-2.2,0-3.9,0.5-5.3,1.4c-1.4,0.9-2.1,2-2.1,3.3s0.2,2.2,0.6,3c0.4,0.7,1.1,1.5,2,2.2
			c1.5,1.2,3.9,2.5,7.2,4c3.3,1.5,6,2.8,8.1,4c2.1,1.2,3.9,2.6,5.4,4.1c3,3,4.5,6.8,4.5,11.4c0,5.6-2,10-5.9,13.2
			c-4,3.3-9.5,5-16.7,5c-6.2,0-11.8-0.9-16.7-2.6c-1.3-0.4-2.3-0.8-2.9-1.2L361.1,73.5z"/>
		<path fill="#FFFFFF" d="M484.4,26.4h-17.7L445.1,89h16.3l2.4-8.6c-1-1.3-6.4-3-6.4-3h7.3l0,0h21.6l3.4,11.6h16.5L484.4,26.4z
			 M467.7,66.6l5.5-19.4l2.1-8l2,8l5.7,19.4H467.7z"/>
		<path fill="#FFFFFF" d="M563.5,26.4v12h16.6V89h15.6V41.4c-1-1.3-7.8-3-7.8-3h7.8h5.8h10.8v-12H563.5z"/>
		<path fill="#FFFFFF" d="M716.1,84.5c-1.1-1.8-2-3.7-2.9-5.7c-0.9-2-1.7-3.9-2.6-5.8c-2.1-4.6-4.1-7.6-6-9.1
			c6.6-3,9.9-8.9,9.9-17.8c0-4.8-1.2-8.8-3.5-12c-1.1-1.5-2.4-2.7-3.9-3.7c-1.5-1-3.1-1.8-4.8-2.3c-1.7-0.6-3.5-1-5.4-1.3
			c-1.9-0.3-4.1-0.4-6.7-0.4c-2.6,0-5.9,0-9.9,0c-1.5,0-2.9,0-4.2,0c-1.2,0-2.4,0-3.5,0h-5.3V89h15.5V69.9c-1.4-1.3-7.7-2.9-7.7-2.9
			h7.7v0c2.7,0,4.9,0,6.7,0c1.2,0,2.3,0.6,3.2,1.7c0.9,1.2,1.7,2.6,2.4,4.3c0.7,1.7,1.4,3.6,2,5.7c0.7,2,1.4,4.1,2.3,6.2
			c0.9,2.1,1.6,3.4,2.1,4.1h17.1L716.1,84.5z M697.4,53.6c-1.6,2-3.9,3.1-6.9,3.1h-3.1c-1.5,0-3-0.1-4.5-0.3V39.9
			c-1.2-1.3-7.8-2.9-7.8-2.9h13.6v0c0.2,0,0.5,0,0.8,0c6.7,0,10.1,3.1,10.1,9.2C699.5,49.3,698.8,51.7,697.4,53.6z"/>
		<path fill="#FFFFFF" d="M634.9,77.2V66c-1.1-1.3-7.8-3-7.8-3h7.8v0h18.4V51.7h-18.4V40.9c-1.1-1.3-7.8-3-7.8-3h13.6v0h18V26.4
			h-39.2V89h41.6V77.2H634.9z"/>
		<path fill="#FFFFFF" d="M560.2,84.5c-1.1-1.8-2-3.7-2.9-5.7c-0.9-2-1.7-3.9-2.6-5.8c-2.1-4.6-4.1-7.6-6-9.1
			c6.6-3,9.9-8.9,9.9-17.8c0-4.8-1.2-8.8-3.5-12c-1.1-1.5-2.4-2.7-3.9-3.7c-1.5-1-3.1-1.8-4.8-2.3c-1.7-0.6-3.5-1-5.4-1.3
			c-1.9-0.3-4.1-0.4-6.7-0.4c-2.6,0-5.9,0-9.9,0c-1.5,0-2.9,0-4.2,0c-1.2,0-2.4,0-3.5,0h-5.3V89H527V70c-1.2-1.3-7.8-3-7.8-3h7.8v0
			c2.7,0,4.9,0,6.7,0c1.2,0,2.3,0.6,3.2,1.7c0.9,1.2,1.7,2.6,2.4,4.3c0.7,1.7,1.4,3.6,2,5.7c0.7,2,1.4,4.1,2.3,6.2
			c0.9,2.1,1.6,3.4,2.1,4.1h17.1L560.2,84.5z M541.5,53.6c-1.6,2-3.9,3.1-6.9,3.1h-3.1c-1.5,0-3-0.1-4.5-0.3V40.1
			c-0.9-1.3-7.8-3.1-7.8-3.1h13.6l0,0c0.3,0,0.6,0,0.9,0c6.7,0,10.1,3.1,10.1,9.2C543.7,49.3,543,51.7,541.5,53.6z"/>
		<path fill="#FFFFFF" d="M403.9,26.4v12h16.6V89h15.6V41.4c-1-1.3-7.8-3.1-7.8-3.1h7.8h5.8h10.8v-12H403.9z"/>
		<path fill="#FFFFFF" d="M348.3,31.3c-2.1-1.7-4.6-3-7.5-3.7c-2.9-0.8-6.1-1.1-9.6-1.1c-3.4,0-6.6,0-9.4,0c-2.8,0-5.7,0-8.5,0h-6
			V89h15.6V74.2c-0.9-1.3-7.9-3.1-7.9-3.1h7.9v0c1.3,0,3.7,0,7.3,0s6.9-0.5,10.1-1.5c9.7-3.1,14.5-10.2,14.5-21.4
			C354.6,40.5,352.5,34.8,348.3,31.3z M336.5,57.2c-0.9,1-2,1.7-3.3,2.1c-1.2,0.4-2.7,0.6-4.4,0.6s-3.7-0.1-6-0.3v-20
			c-0.9-1.3-7.9-3.1-7.9-3.1h13.6v0c0.1,0,0.1,0,0.2,0c2,0,3.6,0.2,4.9,0.7c3.9,1.5,5.8,5,5.8,10.6C339.4,52,338.4,55.2,336.5,57.2z
			"/>
	</g>
	<path fill="#FFFFFF" d="M93.2,31.6c0,0-18.2-14.9,2.2-25.8c-23.6-10.9-36.3-5-40.7,6C50.4,22.9,54.4,33.6,57,39
		c-3.3-3.8-7.6-11.6-4.8-26.4c0,0-51.5-10.8-52.2,34.7c-0.3,19.5,11.2,31.2,19.2,39.4c0,0,19,14.1-2.2,25.8c23.6,10.9,36.3,5,40.7-6
		C62,95.4,58,84.6,55.4,79.3c3.3,3.8,7.6,11.6,4.8,26.4c0,0,51.5,10.8,52.2-34.7C112.7,51.5,101.2,39.7,93.2,31.6z M75.7,72.5
		c-5.2,7.5-18.1,7.6-28.8,0.2c-10.7-7.4-15.2-19.5-10-27c5.2-7.5,18.1-7.6,28.8-0.2S80.9,65,75.7,72.5z"/>
</g>
</svg>
